<svg width="21" height="19" viewBox="0 0 21 19" xmlns="http://www.w3.org/2000/svg">
<path d="M19.3341 1.97684C18.247 0.797798 16.7554 0.148438 15.1336 0.148438C13.9214 0.148438 12.8113 0.531677 11.834 1.28742C11.3408 1.6689 10.894 2.13561 10.5 2.68035C10.1062 2.13577 9.65918 1.6689 9.16587 1.28742C8.18871 0.531677 7.07856 0.148438 5.86636 0.148438C4.24464 0.148438 2.75285 0.797798 1.66578 1.97684C0.591682 3.1421 0 4.73402 0 6.45956C0 8.23557 0.661858 9.86129 2.08282 11.5759C3.35399 13.1097 5.18095 14.6667 7.29662 16.4696C8.01904 17.0853 8.83791 17.7832 9.68818 18.5266C9.9128 18.7234 10.201 18.8317 10.5 18.8317C10.7988 18.8317 11.0872 18.7234 11.3115 18.527C12.1618 17.7834 12.9811 17.0852 13.7039 16.4691C15.8192 14.6665 17.6462 13.1097 18.9173 11.5758C20.3383 9.86129 21 8.23557 21 6.4594C21 4.73402 20.4083 3.1421 19.3341 1.97684Z" fill="currentColor"/>
</svg>
