<svg width="22" height="21" viewBox="0 0 22 21" xmlns="http://www.w3.org/2000/svg">
<path d="M9.78675 0.629501C10.1646 -0.0703117 11.1687 -0.0703122 11.5466 0.629501L14.1558 5.4616C14.3 5.72849 14.5574 5.91554 14.8558 5.97013L20.2577 6.9585C21.04 7.10164 21.3503 8.05653 20.8015 8.63218L17.0122 12.607C16.8029 12.8265 16.7046 13.1291 16.7449 13.4298L17.4741 18.8727C17.5798 19.661 16.7675 20.2512 16.0504 19.9071L11.0992 17.5316C10.8258 17.4003 10.5075 17.4003 10.2341 17.5316L5.28289 19.9071C4.56583 20.2512 3.75355 19.661 3.85917 18.8727L4.58846 13.4298C4.62874 13.1291 4.5304 12.8265 4.32111 12.607L0.531819 8.63218C-0.0169683 8.05653 0.293297 7.10164 1.07563 6.9585L6.47754 5.97013C6.7759 5.91554 7.03336 5.72849 7.17747 5.4616L9.78675 0.629501Z" fill="currentColor"/>
</svg>
