<svg width="112" height="112" viewBox="0 0 112 112" fill="none" xmlns="http://www.w3.org/2000/svg">
<g clip-path="url(#clip0_6_1744)">
<path d="M112 56C112 25.0721 86.9279 0 56 0C25.0721 0 0 25.0721 0 56C0 86.9279 25.0721 112 56 112C86.9279 112 112 86.9279 112 56Z" fill="url(#paint0_linear_6_1744)"/>
<path opacity="0.1" d="M98.1473 19.1579C89.9831 34.1452 78.4368 49.6042 64.0095 64.0316C49.5821 78.4589 34.1231 89.9831 19.1579 98.1474C18.2196 97.3319 17.3084 96.4821 16.4242 95.5979C11.0796 90.4317 6.81694 84.2531 3.88488 77.4224C0.952827 70.5918 -0.589984 63.2458 -0.653589 55.8127C-0.717195 48.3796 0.699679 41.0082 3.51441 34.1284C6.32915 27.2486 10.4854 20.998 15.7409 15.741C20.9963 10.4841 27.2457 6.32612 34.1248 3.50947C41.0038 0.692816 48.3748 -0.726116 55.8079 -0.664585C63.241 -0.603055 70.5875 0.937705 77.419 3.86785C84.2504 6.798 90.4302 11.0589 95.5979 16.4021C96.4821 17.2863 97.3319 18.2049 98.1473 19.1579Z" fill="white"/>
<path d="M69.2632 26.5262H42.7368C38.4375 26.5262 34.3143 28.2341 31.2743 31.2742C28.2342 34.3143 26.5263 38.4375 26.5263 42.7368V69.2631C26.5263 73.5624 28.2342 77.6856 31.2743 80.7257C34.3143 83.7657 38.4375 85.4736 42.7368 85.4736H69.2632C73.5625 85.4736 77.6857 83.7657 80.7257 80.7257C83.7658 77.6856 85.4737 73.5624 85.4737 69.2631V42.7368C85.4737 38.4375 83.7658 34.3143 80.7257 31.2742C77.6857 28.2341 73.5625 26.5262 69.2632 26.5262ZM80.3158 66.9347C80.3158 70.4835 78.906 73.8871 76.3966 76.3965C73.8871 78.9059 70.4836 80.3157 66.9347 80.3157H45.0653C41.5164 80.3157 38.1129 78.9059 35.6034 76.3965C33.094 73.8871 31.6842 70.4835 31.6842 66.9347V45.0652C31.6842 41.5163 33.094 38.1128 35.6034 35.6034C38.1129 33.0939 41.5164 31.6841 45.0653 31.6841H66.9347C70.4836 31.6841 73.8871 33.0939 76.3966 35.6034C78.906 38.1128 80.3158 41.5163 80.3158 45.0652V66.9347Z" fill="white"/>
<path d="M66.7505 45.3599L66.6105 45.2199L66.4926 45.102C63.7066 42.3257 59.9332 40.7676 56 40.7694C54.0138 40.7829 52.0497 41.1876 50.2199 41.9604C48.3901 42.7332 46.7306 43.859 45.336 45.2734C43.9415 46.6878 42.8393 48.3631 42.0924 50.2036C41.3455 52.0441 40.9686 54.0137 40.9831 55.9999C40.9801 60.0308 42.569 63.8999 45.4042 66.7652C46.7929 68.1708 48.4477 69.2857 50.272 70.0448C52.0963 70.8038 54.0535 71.1919 56.0295 71.1863C58.9933 71.1241 61.875 70.2008 64.3232 68.529C66.7713 66.8572 68.6801 64.5092 69.8167 61.7712C70.9533 59.0332 71.2686 56.0237 70.7241 53.1096C70.1797 50.1955 68.799 47.5028 66.7505 45.3599ZM56 65.9915C54.0181 66.0193 52.0727 65.457 50.4113 64.3761C48.7499 63.2952 47.4475 61.7447 46.6697 59.9216C45.892 58.0984 45.674 56.0852 46.0436 54.1379C46.4132 52.1906 47.3536 50.3972 48.7452 48.9858C50.1368 47.5744 51.9167 46.6088 53.8586 46.2118C55.8005 45.8148 57.8167 46.0043 59.6505 46.7563C61.4844 47.5082 63.0533 48.7886 64.1575 50.4346C65.2617 52.0806 65.8514 54.0179 65.8516 55.9999C65.8613 57.303 65.6141 58.5952 65.1242 59.8027C64.6342 61.0102 63.9112 62.1093 62.9963 63.0372C62.0813 63.9651 60.9925 64.7036 59.7921 65.2105C58.5916 65.7175 57.303 65.9828 56 65.9915Z" fill="white"/>
<path d="M75.4747 40.0694C75.4786 40.5422 75.3892 41.0112 75.2116 41.4494C75.034 41.8876 74.7718 42.2865 74.4398 42.6233C74.1079 42.96 73.7128 43.228 73.2771 43.4118C72.8415 43.5956 72.3739 43.6918 71.9011 43.6947C71.4322 43.6944 70.968 43.6012 70.5355 43.4203C70.1029 43.2395 69.7105 42.9746 69.3811 42.641C68.8819 42.1345 68.5423 41.4926 68.4045 40.795C68.2667 40.0973 68.3367 39.3746 68.6058 38.7163C68.8749 38.0581 69.3313 37.4933 69.9183 37.092C70.5054 36.6907 71.1974 36.4706 71.9084 36.4589C72.7406 36.4587 73.5464 36.7508 74.1853 37.2841L74.2589 37.3578C74.3778 37.4545 74.4864 37.5632 74.5832 37.682L74.6642 37.7704C75.1916 38.4202 75.478 39.2325 75.4747 40.0694Z" fill="white"/>
</g>
<defs>
<linearGradient id="paint0_linear_6_1744" x1="16.4021" y1="16.4021" x2="95.5979" y2="95.5979" gradientUnits="userSpaceOnUse">
<stop stop-color="#FAE100"/>
<stop offset="0.15" stop-color="#FCB720"/>
<stop offset="0.3" stop-color="#FF7950"/>
<stop offset="0.5" stop-color="#FF1C74"/>
<stop offset="1" stop-color="#6C1CD1"/>
</linearGradient>
<clipPath id="clip0_6_1744">
<rect width="112" height="112" fill="white"/>
</clipPath>
</defs>
</svg>
