<svg width="112" height="112" viewBox="0 0 112 112" fill="none" xmlns="http://www.w3.org/2000/svg">
<g id="linkedin 1" clip-path="url(#clip0_6_1897)">
<g id="Group">
<path id="Vector" d="M55.9998 0C86.9295 0 112 25.074 112 56.0002C112 86.9264 86.9295 112 55.9998 112C25.0701 112 0 86.926 0 56.0002C0 25.0744 25.0705 0 55.9998 0Z" fill="#0E76A8"/>
<path id="Vector_2" d="M31.5559 76.944H42.042V41.9929H31.5559V76.944ZM72.4081 40.7822C67.319 40.7822 62.7655 42.6407 59.5353 46.7428V41.8779H49.0107V76.9443H59.5353V57.9813C59.5353 53.9737 63.2069 50.0642 67.8058 50.0642C72.4046 50.0642 73.5388 53.9737 73.5388 57.8833V76.9409H84.0249V57.1028C84.0245 43.3231 77.5006 40.7822 72.4081 40.7822ZM36.75 38.5001C39.648 38.5001 42.0001 36.1479 42.0001 33.2499C42.0001 30.3519 39.648 28.0001 36.75 28.0001C33.8519 28.0001 31.4998 30.3522 31.4998 33.2503C31.4998 36.1483 33.8519 38.5001 36.75 38.5001Z" fill="white"/>
</g>
</g>
<defs>
<clipPath id="clip0_6_1897">
<rect width="112" height="112" fill="white"/>
</clipPath>
</defs>
</svg>
