<svg width="112" height="112" viewBox="0 0 112 112" fill="none" xmlns="http://www.w3.org/2000/svg">
<g id="social 1">
<rect width="112" height="112" rx="56" fill="url(#paint0_linear_6_1789)"/>
<g id="Group">
<path id="Vector" d="M73.8505 29C67.1269 29 61.8707 34.0641 57.1128 40.4973C50.5744 32.1722 45.1063 29 38.5627 29C25.2218 29 15 46.3621 15 64.7387C15 76.2382 20.5633 83.4912 29.8817 83.4912C36.5886 83.4912 41.4122 80.3293 49.9871 65.3399C49.9871 65.3399 53.5616 59.0275 56.0207 54.6793C56.8823 56.0706 57.7878 57.5674 58.7433 59.1768L62.7644 65.9412C70.5973 79.049 74.9615 83.4911 82.8697 83.4911C91.9477 83.4911 96.9998 76.1389 96.9998 64.4003C97 45.1594 86.5477 29 73.8505 29ZM43.4482 61.2814C36.4959 72.1797 34.0908 74.6224 30.22 74.6224C26.2364 74.6224 23.869 71.1253 23.869 64.8891C23.869 51.5481 30.5207 37.9065 38.4501 37.9065C42.744 37.9065 46.3325 40.3863 51.8289 48.2551C46.6097 56.2605 43.4482 61.2814 43.4482 61.2814ZM69.6873 59.9094L64.8795 51.8911C63.5784 49.7752 62.3316 47.8307 61.1285 46.048C65.4617 39.36 69.0359 36.0275 73.2869 36.0275C82.1183 36.0275 89.1834 49.0303 89.1834 65.0018C89.1834 71.0899 87.1893 74.6224 83.0579 74.6224C79.0979 74.6223 77.2061 72.0071 69.6873 59.9094Z" fill="white"/>
</g>
</g>
<defs>
<linearGradient id="paint0_linear_6_1789" x1="100.489" y1="104.282" x2="23.4525" y2="-14.8551" gradientUnits="userSpaceOnUse">
<stop offset="0.13" stop-color="#0869E1"/>
<stop offset="0.87" stop-color="#0064E0"/>
</linearGradient>
</defs>
</svg>
