<svg width="112" height="112" viewBox="0 0 112 112" fill="none" xmlns="http://www.w3.org/2000/svg">
<g id="pinterest 1" clip-path="url(#clip0_6_1863)">
<g id="Group">
<path id="Vector" d="M56 112C86.9274 112 111.999 86.9283 111.999 56.001C111.999 25.0736 86.9274 0.00195312 56 0.00195312C25.0726 0.00195312 0.000999451 25.0736 0.000999451 56.001C0.000999451 86.9283 25.0726 112 56 112Z" fill="#CB2027"/>
<g id="Group_2">
<path id="Vector_2" d="M60.52 74.9894C56.2865 74.662 54.5076 72.5627 51.1875 70.5473C49.3627 80.1213 47.1327 89.2991 40.5274 94.0937C38.486 79.6232 43.5201 68.7544 45.8579 57.2178C41.873 50.5097 46.3371 37.0076 54.7422 40.3347C65.0869 44.4254 45.7861 65.2776 58.7432 67.882C72.2702 70.6012 77.7925 44.4105 69.4033 35.8915C57.2827 23.5923 34.1227 35.612 36.9706 53.2189C37.6644 57.5233 42.1126 58.83 38.7475 64.7695C30.9902 63.0515 28.6763 56.9333 28.9738 48.7768C29.4539 35.4254 40.9706 26.0769 52.5222 24.7832C67.1313 23.1481 80.8431 30.1477 82.7357 43.8894C84.865 59.399 76.1404 76.1953 60.52 74.9894Z" fill="#F1F2F2"/>
</g>
</g>
</g>
<defs>
<clipPath id="clip0_6_1863">
<rect width="112" height="112" fill="white"/>
</clipPath>
</defs>
</svg>
