<svg width="0" height="0" class="hidden">
  <symbol xmlns="http://www.w3.org/2000/svg" viewBox="0 0 21 24" id="ic_arrow_hor">
    <path d="M0.939341 13.0607C0.353554 12.4749 0.353554 11.5251 0.939341 10.9393L10.4853 1.3934C11.0711 0.807611 12.0208 0.807611 12.6066 1.3934C13.1924 1.97919 13.1924 2.92893 12.6066 3.51472L4.12132 12L12.6066 20.4853C13.1924 21.0711 13.1924 22.0208 12.6066 22.6066C12.0208 23.1924 11.0711 23.1924 10.4853 22.6066L0.939341 13.0607ZM21 13.5H2V10.5H21V13.5Z" fill="currentColor"></path>
  </symbol>
  <symbol xmlns="http://www.w3.org/2000/svg" viewBox="0 0 44 44" id="ic_close">
    <rect x="13.1611" y="28.2175" width="22" height="3" rx="1.5" transform="rotate(-45 13.1611 28.2175)" fill="currentColor"></rect>
    <rect x="15.2825" y="12.6611" width="22" height="3" rx="1.5" transform="rotate(45 15.2825 12.6611)" fill="currentColor"></rect>
  </symbol>
  <symbol xmlns="http://www.w3.org/2000/svg" viewBox="0 0 21 19" id="ic_heart">
    <path d="M19.3341 1.97684C18.247 0.797798 16.7554 0.148438 15.1336 0.148438C13.9214 0.148438 12.8113 0.531677 11.834 1.28742C11.3408 1.6689 10.894 2.13561 10.5 2.68035C10.1062 2.13577 9.65918 1.6689 9.16587 1.28742C8.18871 0.531677 7.07856 0.148438 5.86636 0.148438C4.24464 0.148438 2.75285 0.797798 1.66578 1.97684C0.591682 3.1421 0 4.73402 0 6.45956C0 8.23557 0.661858 9.86129 2.08282 11.5759C3.35399 13.1097 5.18095 14.6667 7.29662 16.4696C8.01904 17.0853 8.83791 17.7832 9.68818 18.5266C9.9128 18.7234 10.201 18.8317 10.5 18.8317C10.7988 18.8317 11.0872 18.7234 11.3115 18.527C12.1618 17.7834 12.9811 17.0852 13.7039 16.4691C15.8192 14.6665 17.6462 13.1097 18.9173 11.5758C20.3383 9.86129 21 8.23557 21 6.4594C21 4.73402 20.4083 3.1421 19.3341 1.97684Z" fill="currentColor"></path>
  </symbol>
  <symbol xmlns="http://www.w3.org/2000/svg" viewBox="0 0 44 44" id="ic_menu">
    <rect x="11" y="20" width="22" height="3" rx="1.5" fill="currentColor"></rect>
    <rect x="11" y="26" width="22" height="3" rx="1.5" fill="currentColor"></rect>
    <rect x="11" y="14" width="22" height="3" rx="1.5" fill="currentColor"></rect>
  </symbol>
  <symbol xmlns="http://www.w3.org/2000/svg" viewBox="0 0 38 38" id="ic_or">
    <path d="M11.1245 9.91639L11.1245 3L-9.11388e-07 14.1499L11.1245 25.296L11.1245 18.2987C24.2338 19.2869 34.8245 26.1293 37.3993 35C37.7923 33.6457 38 32.2437 38 30.8104C38 19.974 26.2366 11.055 11.1245 9.91639Z" fill="currentColor"></path>
  </symbol>
  <symbol xmlns="http://www.w3.org/2000/svg" viewBox="0 0 22 21" id="ic_star">
    <path d="M9.78675 0.629501C10.1646 -0.0703117 11.1687 -0.0703122 11.5466 0.629501L14.1558 5.4616C14.3 5.72849 14.5574 5.91554 14.8558 5.97013L20.2577 6.9585C21.04 7.10164 21.3503 8.05653 20.8015 8.63218L17.0122 12.607C16.8029 12.8265 16.7046 13.1291 16.7449 13.4298L17.4741 18.8727C17.5798 19.661 16.7675 20.2512 16.0504 19.9071L11.0992 17.5316C10.8258 17.4003 10.5075 17.4003 10.2341 17.5316L5.28289 19.9071C4.56583 20.2512 3.75355 19.661 3.85917 18.8727L4.58846 13.4298C4.62874 13.1291 4.5304 12.8265 4.32111 12.607L0.531819 8.63218C-0.0169683 8.05653 0.293297 7.10164 1.07563 6.9585L6.47754 5.97013C6.7759 5.91554 7.03336 5.72849 7.17747 5.4616L9.78675 0.629501Z" fill="currentColor"></path>
  </symbol>
</svg>