<svg width="112" height="112" viewBox="0 0 112 112" fill="none" xmlns="http://www.w3.org/2000/svg">
<g id="tik-tok 1" clip-path="url(#clip0_6_1812)">
<g id="Group">
<path id="Vector" d="M112.003 56C112.003 86.9268 86.9296 112 56 112H55.8951C25.0152 111.942 0 86.8854 0 56C0 25.1146 25.0152 0.0551969 55.8951 0H56C86.9296 0 112.003 25.0649 112.003 56Z" fill="black"/>
<path id="Vector_2" d="M55.8951 0V112C25.0152 111.942 0 86.8854 0 56C0 25.1146 25.0152 0.0551969 55.8951 0Z" fill="#0C0C0C"/>
<path id="Vector_3" d="M86.4715 40.4979L86.4025 51.9706C84.1668 51.9433 81.9427 51.6449 79.7788 51.0819C76.4406 50.2099 73.2922 48.7288 70.492 46.7131C70.492 47.886 70.5085 49.6358 70.5085 51.7636C70.5085 54.5952 70.5085 56.2042 70.492 57.9125C70.4423 68.4662 70.7045 70.5085 69.7772 74.6814C69.5842 75.6876 69.3205 76.6791 68.9878 77.6482C67.205 82.6159 63.3191 86.5956 59.3587 88.7124C58.2535 89.2999 57.0935 89.7778 55.8951 90.1392C48.4104 92.4078 39.4161 90.4152 34.774 84.8955L34.7437 84.8624L34.7078 84.8155C30.764 80.0575 29.9029 72.6391 29.8201 70.7403C29.8201 70.4974 29.8036 70.2601 29.8036 70.2601C29.7428 67.6663 30.1159 65.0806 30.9075 62.6098C31.7079 60.0542 34.3435 54.7194 40.2634 51.4793C43.9554 49.4905 48.1694 48.6841 52.3349 49.1694L52.1997 60.78C51.9651 60.7193 46.2936 59.3753 42.5706 63.239C39.1981 66.7385 39.4161 72.3769 41.8089 75.57C41.9358 75.7411 42.0711 75.9067 42.2118 76.0613C43.5504 77.5543 45.2477 78.1146 46.393 78.5065C47.9117 79.0069 49.5056 79.2403 51.104 79.1965C52.8163 79.1697 54.4821 78.6347 55.8896 77.6592C59.781 75.0153 60.3054 70.307 60.3247 70.0393C60.2768 54.8822 60.2318 39.7252 60.1895 24.5681V24.5543L67.4837 24.4246H67.6024L68.6594 24.4053C69.4388 27.2102 70.7599 29.8355 72.548 32.1328C73.1114 32.8514 73.7198 33.5335 74.3695 34.1751C76.8243 36.5643 79.7729 38.3862 83.0078 39.5127H83.0299C84.1521 39.9228 85.3022 40.252 86.4715 40.4979Z" fill="#FD2854"/>
<path id="Vector_4" d="M83.1734 45.6892H83.1513C79.2231 46.3186 75.2019 46.0132 71.4137 44.7978C68.7686 43.9377 66.2855 42.6421 64.067 40.9644C65.3973 49.0053 65.3973 57.2101 64.067 65.251C62.4912 74.7007 61.5031 80.6233 56.2291 84.4126C56.1187 84.4926 56.0055 84.5727 55.8924 84.6472C48.6091 89.579 38.4336 87.131 34.705 84.81L34.6498 84.7769L34.545 84.7107C33.316 83.8965 32.1632 82.9728 31.1007 81.9508C29.1961 80.1032 27.6762 77.8967 26.6289 75.4587C25.5816 73.0206 25.0275 70.3992 24.9987 67.7459C24.9278 64.9976 25.384 62.2611 26.3427 59.6844C26.9637 58.0285 29.2709 52.139 35.6986 48.5539C39.8145 46.2971 44.5704 45.4922 49.1997 46.2688C49.1813 47.1887 49.1639 48.1087 49.1473 49.0286V49.0479L49.0397 54.8712C47.0252 54.3965 44.9427 54.2806 42.888 54.529C41.2321 54.7332 39.6093 54.9237 37.8844 56.0083C35.6753 57.4302 34.1117 59.6616 33.5294 62.2234C33.1608 63.4642 33.0852 64.7736 33.3086 66.0486C33.3748 66.4129 33.8605 68.9437 35.9028 70.7596C36.59 71.3696 36.8826 71.3944 37.8844 72.33C38.7675 73.158 38.9883 73.5554 39.797 74.2426C39.797 74.2426 39.9957 74.4109 40.3213 74.6483C40.3422 74.6663 40.3644 74.6829 40.3876 74.6979C40.8329 75.0237 41.3004 75.3178 41.7868 75.5783C43.8098 76.6381 47.4307 76.7513 50.0857 75.4624C53.759 73.6768 55.7627 69.5701 55.7544 67.1304C55.7102 51.9679 55.6651 36.8062 55.6191 21.6455H55.873L67.1387 21.5792C67.1307 22.458 67.2525 23.3331 67.5003 24.1762C67.5279 24.2673 67.5555 24.3529 67.5858 24.4522C67.6162 24.5516 67.6355 24.5985 67.6603 24.6675C67.8351 25.1261 68.037 25.574 68.2647 26.0088L68.4221 26.3262V26.351C68.4195 26.3581 68.4195 26.3659 68.4221 26.3731L68.4469 26.4255L68.4717 26.4752C68.4867 26.5073 68.5033 26.5386 68.5214 26.569C68.538 26.6049 68.5573 26.6408 68.5766 26.6767C68.6815 26.8781 68.825 27.1431 68.9878 27.4411C69.0899 27.626 69.1976 27.811 69.308 27.9931L69.4266 28.189C69.4846 28.2884 69.5453 28.3878 69.606 28.4844L69.8268 28.8349C70.6851 30.1899 72.192 32.4723 74.3281 34.1972C77.3308 36.6204 80.7806 37.3048 82.9444 37.509C82.9582 38.188 82.9747 38.8669 82.9885 39.5458C83.0695 41.5955 83.1311 43.6433 83.1734 45.6892Z" fill="#24F6FA"/>
<path id="Vector_5" d="M83.2093 48.932C77.5225 49.1406 71.9392 47.3725 67.4092 43.9284V68.2151C67.354 69.1451 66.5398 79.4035 57.2723 85.0501C56.8141 85.3261 56.3532 85.5828 55.8923 85.8201C47.174 90.269 38.6544 86.7833 37.8126 86.4217C36.9756 86.1482 36.1735 85.7777 35.4226 85.3178C35.188 85.1715 34.9589 85.0197 34.7409 84.8624L34.545 84.7162C28.8597 80.3998 28.6251 71.6069 28.5892 70.3098C28.5285 67.716 28.9016 65.1303 29.6931 62.6595C30.6315 59.6651 33.4327 54.6173 39.049 51.529C42.148 49.8426 45.6307 48.9869 49.1583 49.0452V49.0645C49.1123 51.9807 49.0663 54.8979 49.0203 57.816C48.427 57.6559 44.7895 56.7396 41.2348 58.9779C39.0257 60.3998 37.4622 62.6312 36.8798 65.193C36.5313 66.4363 36.456 67.7403 36.659 69.0154C36.9742 70.5899 37.7171 72.047 38.8062 73.2269C39.264 73.7542 39.7755 74.2324 40.3323 74.6538C40.3532 74.6718 40.3754 74.6884 40.3986 74.7034C40.8359 75.0408 41.3044 75.3356 41.7978 75.5838L41.8144 75.5976C42.8006 77.0869 44.2232 78.2347 45.8873 78.8839C47.5513 79.5331 49.3753 79.6519 51.1095 79.2241C51.9175 79.0554 52.7023 78.7905 53.4471 78.4348C54.3492 78.0057 55.1759 77.4335 55.8951 76.7402C58.6881 74.0549 59.0965 70.3401 59.1158 70.1166L58.9944 24.6095L60.2087 24.5847L67.503 24.4412H67.6079C67.6355 24.5129 67.6658 24.5847 67.6962 24.6564C67.8645 25.0621 68.066 25.512 68.3006 25.9977L68.4579 26.3151V26.3399C68.4554 26.3471 68.4554 26.3549 68.4579 26.362L68.4828 26.4145L68.5076 26.4641C68.5226 26.4962 68.5391 26.5275 68.5573 26.558C68.5738 26.5938 68.5932 26.6297 68.6125 26.6656C68.7394 26.914 68.8885 27.1706 69.0237 27.4301C69.1258 27.615 69.2334 27.7999 69.3438 27.982L69.4625 28.178L69.6419 28.4733L69.8627 28.8238C71.1251 30.7982 72.6381 32.6007 74.364 34.1862C76.8826 36.4921 79.8132 38.3029 83.0023 39.5237H83.0244C83.0603 41.5688 83.0961 43.6193 83.1292 45.6644L83.2093 48.932Z" fill="white"/>
<path id="Vector_6" opacity="0.17" d="M86.4714 40.498L86.4024 51.9706C84.1667 51.9433 81.9426 51.6449 79.7788 51.082C76.4406 50.2099 73.2921 48.7288 70.4919 46.7131C70.4919 47.8861 70.5085 49.6358 70.5085 51.7636C70.5085 54.5952 70.5085 56.2042 70.4919 57.9126C70.4422 68.4662 70.7044 70.5085 69.7771 74.6814C69.5842 75.6877 69.3205 76.6791 68.9878 77.6482C67.205 82.6159 63.3191 86.5956 59.3587 88.7124C58.2535 89.3 57.0935 89.7779 55.8951 90.1393V21.6455L67.1608 21.5792C67.1527 22.458 67.2745 23.3331 67.5223 24.1762C67.5499 24.2673 67.5775 24.3529 67.6079 24.4522L68.6649 24.4329C69.4443 27.2379 70.7654 29.8631 72.5535 32.1605C73.1169 32.879 73.7253 33.5612 74.375 34.2028C77.3777 36.6259 80.8275 37.3103 82.9913 37.5146C83.0051 38.1935 83.0216 38.8724 83.0354 39.5513C84.1568 39.9481 85.3051 40.2644 86.4714 40.498Z" fill="black"/>
</g>
</g>
<defs>
<clipPath id="clip0_6_1812">
<rect width="112" height="112" fill="white"/>
</clipPath>
</defs>
</svg>
