<svg width="112" height="112" viewBox="0 0 112 112" fill="none" xmlns="http://www.w3.org/2000/svg">
<g clip-path="url(#clip0_6_1756)">
<path d="M56 -0.0174561C25.0705 -0.0174561 0 25.053 0 55.9825C0 86.9085 25.0705 111.983 56 111.983C86.9295 111.983 112 86.9085 112 55.9825C112 25.053 86.9295 -0.0174561 56 -0.0174561Z" fill="#E02F2F"/>
<path d="M62.986 68.488C62.755 68.488 62.531 68.537 62.307 68.6455C62.0865 68.7505 61.866 68.9185 61.6455 69.1425V79.289C61.9045 79.548 62.16 79.751 62.405 79.863C62.65 79.9785 62.9055 80.038 63.1785 80.038C63.5705 80.038 63.8575 79.926 64.0395 79.6915C64.2215 79.464 64.3195 79.0965 64.3195 78.5715V70.1645C64.3195 69.615 64.204 69.195 63.98 68.915C63.7525 68.628 63.4165 68.488 62.986 68.488Z" fill="white"/>
<path d="M74.025 68.5476C73.514 68.5476 73.15 68.6911 72.926 68.9956C72.7055 69.2826 72.597 69.7726 72.597 70.4551V72.1001H75.4285V70.4551C75.4285 69.7726 75.313 69.2826 75.089 68.9956C74.872 68.6911 74.5115 68.5476 74.025 68.5476Z" fill="white"/>
<path d="M80.7765 55.8671C78.1445 53.2421 55.9895 53.2071 55.9895 53.2071C55.9895 53.2036 33.8345 53.2386 31.199 55.8636C28.5635 58.4956 28.5565 71.4806 28.5565 71.5541C28.5565 71.6521 28.5635 84.6161 31.199 87.2481C33.8345 89.8731 55.9895 89.9291 55.9895 89.9291C55.9895 89.9291 78.148 89.8731 80.7765 87.2481C83.4225 84.6091 83.447 71.5541 83.447 71.5541C83.447 71.4841 83.4155 58.4991 80.7765 55.8671ZM45.4545 63.5216H41.7235V82.3866H38.115V63.5216H34.3805V60.3156H45.451V63.5216H45.4545ZM56 82.3831H52.8045V80.5946C52.2095 81.2561 51.597 81.7601 50.953 82.1031C50.3125 82.4531 49.693 82.6211 49.0945 82.6211C48.3525 82.6211 47.803 82.3831 47.4215 81.8931C47.054 81.4066 46.8615 80.6856 46.8615 79.7126V66.0976H50.0605V78.5856C50.0605 78.9741 50.127 79.2506 50.2565 79.4256C50.3965 79.6006 50.617 79.6846 50.9145 79.6846C51.149 79.6846 51.45 79.5726 51.8105 79.3381C52.171 79.1106 52.5 78.8201 52.8045 78.4666V66.0976H56V82.3831ZM67.6165 79.0196C67.6165 80.1711 67.3645 81.0531 66.864 81.6691C66.367 82.2851 65.6355 82.5896 64.687 82.5896C64.057 82.5896 63.5005 82.4776 63.014 82.2361C62.524 81.9981 62.062 81.6376 61.6455 81.1336V82.3831H58.4115V60.3121H61.6455V67.4206C62.0795 66.9236 62.5345 66.5421 63.0175 66.2901C63.5075 66.0311 63.9975 65.9016 64.4945 65.9016C65.5095 65.9016 66.283 66.2481 66.815 66.9376C67.354 67.6341 67.6165 68.6491 67.6165 69.9826V79.0196ZM78.7185 74.6376H72.597V77.7001C72.597 78.5576 72.702 79.1526 72.9085 79.4851C73.1255 79.8176 73.4825 79.9786 73.9935 79.9786C74.522 79.9786 74.893 79.8386 75.1065 79.5586C75.3165 79.2786 75.4285 78.6626 75.4285 77.7001V76.9581H78.722V77.7946C78.722 79.4641 78.323 80.7206 77.518 81.5711C76.72 82.4146 75.5195 82.8311 73.927 82.8311C72.4955 82.8311 71.3615 82.3866 70.539 81.4906C69.7165 80.5981 69.3 79.3696 69.3 77.7981V70.4866C69.3 69.0796 69.7585 67.9211 70.6615 67.0356C71.5645 66.1466 72.73 65.7021 74.165 65.7021C75.6315 65.7021 76.7585 66.1151 77.546 66.9376C78.3335 67.7601 78.722 68.9431 78.722 70.4866V74.6376H78.7185Z" fill="white"/>
<path d="M74.011 46.3785H70.406V44.3975C69.748 45.1255 69.055 45.6855 68.334 46.0635C67.6165 46.445 66.92 46.6375 66.2445 46.6375C65.4045 46.6375 64.7815 46.368 64.3615 45.836C63.9415 45.3005 63.728 44.5025 63.728 43.4315V28.441H67.326V42.1925C67.326 42.616 67.41 42.924 67.5605 43.113C67.7075 43.3055 67.956 43.4 68.292 43.4C68.5545 43.4 68.8905 43.274 69.2965 43.022C69.699 42.77 70.0735 42.448 70.406 42.056V28.441H74.011V46.3785Z" fill="white"/>
<path d="M59.3775 29.2915C58.422 28.4235 57.197 27.986 55.706 27.986C54.0715 27.986 52.7625 28.399 51.7965 29.2215C50.8235 30.044 50.337 31.15 50.3405 32.543V41.839C50.3405 43.365 50.8165 44.576 51.758 45.479C52.7065 46.3785 53.97 46.83 55.545 46.83C57.1865 46.83 58.4675 46.3925 59.409 45.521C60.34 44.646 60.8055 43.4455 60.8055 41.9125V32.6445C60.802 31.2795 60.326 30.1595 59.3775 29.2915ZM57.1305 42.182C57.1305 42.658 56.987 43.036 56.7 43.316C56.4095 43.589 56.0245 43.7255 55.538 43.7255C55.0585 43.7255 54.691 43.5925 54.439 43.323C54.1835 43.05 54.0505 42.672 54.0505 42.182V32.41C54.0505 32.018 54.1905 31.6995 54.4635 31.458C54.74 31.2165 55.097 31.0975 55.538 31.0975C56.0105 31.0975 56.3955 31.2165 56.6895 31.458C56.9835 31.6995 57.1305 32.018 57.1305 32.41V42.182Z" fill="white"/>
<path d="M40.523 22.0675H36.435L41.265 36.7465V46.3785H45.325V36.2915L50.0465 22.0675H45.92L43.414 31.7835H43.1585L40.523 22.0675Z" fill="white"/>
</g>
<defs>
<clipPath id="clip0_6_1756">
<rect width="112" height="112" fill="white"/>
</clipPath>
</defs>
</svg>
